<?xml version="1.0" encoding="UTF-8"?>
<svg width="128" height="128" viewBox="0 0 64 64" fill="none" xmlns="http://www.w3.org/2000/svg">
  <defs>
    <linearGradient id="grad-buy_tech_1" x1="10" y1="8" x2="54" y2="56" gradientUnits="userSpaceOnUse">
      <stop offset="0%" stop-color="#cfedfb"/>
      <stop offset="100%" stop-color="#1f5678"/>
    </linearGradient>
    <clipPath id="clip-buy_tech_1">
      <rect x="6" y="6" width="52" height="52" rx="14"/>
    </clipPath>
  </defs>
  <g clip-path="url(#clip-buy_tech_1)">
    <rect x="6" y="6" width="52" height="52" rx="14" fill="url(#grad-buy_tech_1)"/>
    <g transform="rotate(-37.00, 32, 32)"><rect x="-128" y="-64" width="10" height="192" fill="#22648a" fill-opacity="0.22"/><rect x="-112" y="-64" width="10" height="192" fill="#22648a" fill-opacity="0.22"/><rect x="-96" y="-64" width="10" height="192" fill="#22648a" fill-opacity="0.22"/><rect x="-80" y="-64" width="10" height="192" fill="#22648a" fill-opacity="0.22"/><rect x="-64" y="-64" width="10" height="192" fill="#22648a" fill-opacity="0.22"/><rect x="-48" y="-64" width="10" height="192" fill="#22648a" fill-opacity="0.22"/><rect x="-32" y="-64" width="10" height="192" fill="#22648a" fill-opacity="0.22"/><rect x="-16" y="-64" width="10" height="192" fill="#22648a" fill-opacity="0.22"/><rect x="0" y="-64" width="10" height="192" fill="#22648a" fill-opacity="0.22"/><rect x="16" y="-64" width="10" height="192" fill="#22648a" fill-opacity="0.22"/><rect x="32" y="-64" width="10" height="192" fill="#22648a" fill-opacity="0.22"/><rect x="48" y="-64" width="10" height="192" fill="#22648a" fill-opacity="0.22"/><rect x="64" y="-64" width="10" height="192" fill="#22648a" fill-opacity="0.22"/><rect x="80" y="-64" width="10" height="192" fill="#22648a" fill-opacity="0.22"/><rect x="96" y="-64" width="10" height="192" fill="#22648a" fill-opacity="0.22"/><rect x="112" y="-64" width="10" height="192" fill="#22648a" fill-opacity="0.22"/></g>
    <rect x="6" y="6" width="52" height="52" rx="14" fill="url(#grad-buy_tech_1)" fill-opacity="0.35"/>
  </g>
  <rect x="6" y="6" width="52" height="52" rx="14" stroke="#dbf1fb" stroke-width="1.25" fill="none"/>
    <rect x="22" y="22" width="20" height="20" rx="5" fill="#f8fafc" stroke="#216287" stroke-width="2.2"/>
  <rect x="27" y="27" width="10" height="10" rx="2" fill="#c8ebfb"/>
  <path d="M32 18v4m0 24v4m-8-12h-4m28 0h-4m-3-9 2.8-2.8m-19.6 19.6L26 38m-2.8-12 2.8 2.8m16.8 16.8L38 38" stroke="#19415e" stroke-width="1.6" stroke-linecap="round"/>
</svg>
