<?xml version="1.0" encoding="UTF-8"?>
<svg width="128" height="128" viewBox="0 0 64 64" fill="none" xmlns="http://www.w3.org/2000/svg">
  <defs>
    <linearGradient id="grad-earn_population_today" x1="10" y1="8" x2="54" y2="56" gradientUnits="userSpaceOnUse">
      <stop offset="0%" stop-color="#f9eec1"/>
      <stop offset="100%" stop-color="#5a5123"/>
    </linearGradient>
    <clipPath id="clip-earn_population_today">
      <rect x="6" y="6" width="52" height="52" rx="14"/>
    </clipPath>
  </defs>
  <g clip-path="url(#clip-earn_population_today)">
    <rect x="6" y="6" width="52" height="52" rx="14" fill="url(#grad-earn_population_today)"/>
    <g transform="rotate(-10.00, 32, 32)"><rect x="-128" y="-64" width="10" height="192" fill="#8c771f" fill-opacity="0.22"/><rect x="-112" y="-64" width="10" height="192" fill="#8c771f" fill-opacity="0.22"/><rect x="-96" y="-64" width="10" height="192" fill="#8c771f" fill-opacity="0.22"/><rect x="-80" y="-64" width="10" height="192" fill="#8c771f" fill-opacity="0.22"/><rect x="-64" y="-64" width="10" height="192" fill="#8c771f" fill-opacity="0.22"/><rect x="-48" y="-64" width="10" height="192" fill="#8c771f" fill-opacity="0.22"/><rect x="-32" y="-64" width="10" height="192" fill="#8c771f" fill-opacity="0.22"/><rect x="-16" y="-64" width="10" height="192" fill="#8c771f" fill-opacity="0.22"/><rect x="0" y="-64" width="10" height="192" fill="#8c771f" fill-opacity="0.22"/><rect x="16" y="-64" width="10" height="192" fill="#8c771f" fill-opacity="0.22"/><rect x="32" y="-64" width="10" height="192" fill="#8c771f" fill-opacity="0.22"/><rect x="48" y="-64" width="10" height="192" fill="#8c771f" fill-opacity="0.22"/><rect x="64" y="-64" width="10" height="192" fill="#8c771f" fill-opacity="0.22"/><rect x="80" y="-64" width="10" height="192" fill="#8c771f" fill-opacity="0.22"/><rect x="96" y="-64" width="10" height="192" fill="#8c771f" fill-opacity="0.22"/><rect x="112" y="-64" width="10" height="192" fill="#8c771f" fill-opacity="0.22"/></g>
    <rect x="6" y="6" width="52" height="52" rx="14" fill="url(#grad-earn_population_today)" fill-opacity="0.35"/>
  </g>
  <rect x="6" y="6" width="52" height="52" rx="14" stroke="#f8f3d9" stroke-width="1.25" fill="none"/>
    <circle cx="26" cy="31" r="9.5" fill="#f9efc2" stroke="#796821" stroke-width="2"/>
  <circle cx="37.5" cy="35" r="9" fill="#f8fafc" stroke="#796821" stroke-width="2"/>
  <path d="M21.5 31h9m-6 4h7" stroke="#4a4425" stroke-width="1.8" stroke-linecap="round"/>
</svg>
