<?xml version="1.0" encoding="UTF-8"?>
<svg width="128" height="128" viewBox="0 0 64 64" fill="none" xmlns="http://www.w3.org/2000/svg">
  <defs>
    <linearGradient id="grad-fast_casts_5" x1="10" y1="8" x2="54" y2="56" gradientUnits="userSpaceOnUse">
      <stop offset="0%" stop-color="#d9f4ec"/>
      <stop offset="100%" stop-color="#1e6256"/>
    </linearGradient>
    <clipPath id="clip-fast_casts_5">
      <rect x="6" y="6" width="52" height="52" rx="14"/>
    </clipPath>
  </defs>
  <g clip-path="url(#clip-fast_casts_5)">
    <rect x="6" y="6" width="52" height="52" rx="14" fill="url(#grad-fast_casts_5)"/>
    <g transform="rotate(19.00, 32, 32)"><rect x="-128" y="-64" width="10" height="192" fill="#1d5f55" fill-opacity="0.22"/><rect x="-112" y="-64" width="10" height="192" fill="#1d5f55" fill-opacity="0.22"/><rect x="-96" y="-64" width="10" height="192" fill="#1d5f55" fill-opacity="0.22"/><rect x="-80" y="-64" width="10" height="192" fill="#1d5f55" fill-opacity="0.22"/><rect x="-64" y="-64" width="10" height="192" fill="#1d5f55" fill-opacity="0.22"/><rect x="-48" y="-64" width="10" height="192" fill="#1d5f55" fill-opacity="0.22"/><rect x="-32" y="-64" width="10" height="192" fill="#1d5f55" fill-opacity="0.22"/><rect x="-16" y="-64" width="10" height="192" fill="#1d5f55" fill-opacity="0.22"/><rect x="0" y="-64" width="10" height="192" fill="#1d5f55" fill-opacity="0.22"/><rect x="16" y="-64" width="10" height="192" fill="#1d5f55" fill-opacity="0.22"/><rect x="32" y="-64" width="10" height="192" fill="#1d5f55" fill-opacity="0.22"/><rect x="48" y="-64" width="10" height="192" fill="#1d5f55" fill-opacity="0.22"/><rect x="64" y="-64" width="10" height="192" fill="#1d5f55" fill-opacity="0.22"/><rect x="80" y="-64" width="10" height="192" fill="#1d5f55" fill-opacity="0.22"/><rect x="96" y="-64" width="10" height="192" fill="#1d5f55" fill-opacity="0.22"/><rect x="112" y="-64" width="10" height="192" fill="#1d5f55" fill-opacity="0.22"/></g>
    <rect x="6" y="6" width="52" height="52" rx="14" fill="url(#grad-fast_casts_5)" fill-opacity="0.35"/>
  </g>
  <rect x="6" y="6" width="52" height="52" rx="14" stroke="#dbf4ed" stroke-width="1.25" fill="none"/>
    <circle cx="32" cy="30" r="12.5" fill="#f8fafc" stroke="#206c5c" stroke-width="2.4"/>
  <circle cx="32" cy="30" r="7.5" fill="#c7f0e3" stroke="#184646" stroke-width="1.6"/>
  <circle cx="32" cy="30" r="3" fill="#2caa81"/>
  <path d="M32 19v4m0 14v4m-11-11h4m14 0h4" stroke="#184646" stroke-width="1.4" stroke-linecap="round"/>
</svg>
