<?xml version="1.0" encoding="UTF-8"?>
<svg width="128" height="128" viewBox="0 0 64 64" fill="none" xmlns="http://www.w3.org/2000/svg">
  <defs>
    <linearGradient id="grad-increase_prestige_mult" x1="10" y1="8" x2="54" y2="56" gradientUnits="userSpaceOnUse">
      <stop offset="0%" stop-color="#f9d4db"/>
      <stop offset="100%" stop-color="#5b3447"/>
    </linearGradient>
    <clipPath id="clip-increase_prestige_mult">
      <rect x="6" y="6" width="52" height="52" rx="14"/>
    </clipPath>
  </defs>
  <g clip-path="url(#clip-increase_prestige_mult)">
    <rect x="6" y="6" width="52" height="52" rx="14" fill="url(#grad-increase_prestige_mult)"/>
    <g transform="rotate(35.00, 32, 32)"><rect x="-128" y="-64" width="10" height="192" fill="#864458" fill-opacity="0.22"/><rect x="-112" y="-64" width="10" height="192" fill="#864458" fill-opacity="0.22"/><rect x="-96" y="-64" width="10" height="192" fill="#864458" fill-opacity="0.22"/><rect x="-80" y="-64" width="10" height="192" fill="#864458" fill-opacity="0.22"/><rect x="-64" y="-64" width="10" height="192" fill="#864458" fill-opacity="0.22"/><rect x="-48" y="-64" width="10" height="192" fill="#864458" fill-opacity="0.22"/><rect x="-32" y="-64" width="10" height="192" fill="#864458" fill-opacity="0.22"/><rect x="-16" y="-64" width="10" height="192" fill="#864458" fill-opacity="0.22"/><rect x="0" y="-64" width="10" height="192" fill="#864458" fill-opacity="0.22"/><rect x="16" y="-64" width="10" height="192" fill="#864458" fill-opacity="0.22"/><rect x="32" y="-64" width="10" height="192" fill="#864458" fill-opacity="0.22"/><rect x="48" y="-64" width="10" height="192" fill="#864458" fill-opacity="0.22"/><rect x="64" y="-64" width="10" height="192" fill="#864458" fill-opacity="0.22"/><rect x="80" y="-64" width="10" height="192" fill="#864458" fill-opacity="0.22"/><rect x="96" y="-64" width="10" height="192" fill="#864458" fill-opacity="0.22"/><rect x="112" y="-64" width="10" height="192" fill="#864458" fill-opacity="0.22"/></g>
    <rect x="6" y="6" width="52" height="52" rx="14" fill="url(#grad-increase_prestige_mult)" fill-opacity="0.35"/>
  </g>
  <rect x="6" y="6" width="52" height="52" rx="14" stroke="#f8e5ea" stroke-width="1.25" fill="none"/>
    <path d="M22 40.5h20l-2 6H24z" fill="#c75d71" stroke="#793f53" stroke-width="2" stroke-linejoin="round"/>
  <path d="M22 26l5.5 6 4.5-9 4.5 9 5.5-6v10.5H22z" fill="#f8fafc" stroke="#793f53" stroke-width="2" stroke-linejoin="round"/>
  <circle cx="32" cy="21" r="3" fill="#f9d8de" stroke="#4a2e41" stroke-width="1.4"/>
</svg>
