<?xml version="1.0" encoding="UTF-8"?>
<svg width="128" height="128" viewBox="0 0 64 64" fill="none" xmlns="http://www.w3.org/2000/svg">
  <defs>
    <linearGradient id="grad-reach_temp_1e10" x1="10" y1="8" x2="54" y2="56" gradientUnits="userSpaceOnUse">
      <stop offset="0%" stop-color="#eadcfb"/>
      <stop offset="100%" stop-color="#482e76"/>
    </linearGradient>
    <clipPath id="clip-reach_temp_1e10">
      <rect x="6" y="6" width="52" height="52" rx="14"/>
    </clipPath>
  </defs>
  <g clip-path="url(#clip-reach_temp_1e10)">
    <rect x="6" y="6" width="52" height="52" rx="14" fill="url(#grad-reach_temp_1e10)"/>
    <g transform="rotate(-50.00, 32, 32)"><rect x="-128" y="-64" width="10" height="192" fill="#603897" fill-opacity="0.22"/><rect x="-112" y="-64" width="10" height="192" fill="#603897" fill-opacity="0.22"/><rect x="-96" y="-64" width="10" height="192" fill="#603897" fill-opacity="0.22"/><rect x="-80" y="-64" width="10" height="192" fill="#603897" fill-opacity="0.22"/><rect x="-64" y="-64" width="10" height="192" fill="#603897" fill-opacity="0.22"/><rect x="-48" y="-64" width="10" height="192" fill="#603897" fill-opacity="0.22"/><rect x="-32" y="-64" width="10" height="192" fill="#603897" fill-opacity="0.22"/><rect x="-16" y="-64" width="10" height="192" fill="#603897" fill-opacity="0.22"/><rect x="0" y="-64" width="10" height="192" fill="#603897" fill-opacity="0.22"/><rect x="16" y="-64" width="10" height="192" fill="#603897" fill-opacity="0.22"/><rect x="32" y="-64" width="10" height="192" fill="#603897" fill-opacity="0.22"/><rect x="48" y="-64" width="10" height="192" fill="#603897" fill-opacity="0.22"/><rect x="64" y="-64" width="10" height="192" fill="#603897" fill-opacity="0.22"/><rect x="80" y="-64" width="10" height="192" fill="#603897" fill-opacity="0.22"/><rect x="96" y="-64" width="10" height="192" fill="#603897" fill-opacity="0.22"/><rect x="112" y="-64" width="10" height="192" fill="#603897" fill-opacity="0.22"/></g>
    <rect x="6" y="6" width="52" height="52" rx="14" fill="url(#grad-reach_temp_1e10)" fill-opacity="0.35"/>
  </g>
  <rect x="6" y="6" width="52" height="52" rx="14" stroke="#ece1fb" stroke-width="1.25" fill="none"/>
    <path d="M24 18v28" stroke="#543386" stroke-width="2.6" stroke-linecap="round"/>
  <path d="M26.5 20.5h17l-6 6 6 6h-17z" fill="#e4d1fb" stroke="#35275d" stroke-width="1.8" stroke-linejoin="round"/>
  <circle cx="24" cy="46" r="3" fill="#f8fafc" stroke="#35275d" stroke-width="1.4"/>
</svg>
