<?xml version="1.0" encoding="UTF-8"?>
<svg width="128" height="128" viewBox="0 0 64 64" fill="none" xmlns="http://www.w3.org/2000/svg">
  <defs>
    <linearGradient id="grad-session_10min" x1="10" y1="8" x2="54" y2="56" gradientUnits="userSpaceOnUse">
      <stop offset="0%" stop-color="#e7f1fc"/>
      <stop offset="100%" stop-color="#2f507d"/>
    </linearGradient>
    <clipPath id="clip-session_10min">
      <rect x="6" y="6" width="52" height="52" rx="14"/>
    </clipPath>
  </defs>
  <g clip-path="url(#clip-session_10min)">
    <rect x="6" y="6" width="52" height="52" rx="14" fill="url(#grad-session_10min)"/>
    <g transform="rotate(14.00, 32, 32)"><rect x="-128" y="-64" width="10" height="192" fill="#30517f" fill-opacity="0.22"/><rect x="-112" y="-64" width="10" height="192" fill="#30517f" fill-opacity="0.22"/><rect x="-96" y="-64" width="10" height="192" fill="#30517f" fill-opacity="0.22"/><rect x="-80" y="-64" width="10" height="192" fill="#30517f" fill-opacity="0.22"/><rect x="-64" y="-64" width="10" height="192" fill="#30517f" fill-opacity="0.22"/><rect x="-48" y="-64" width="10" height="192" fill="#30517f" fill-opacity="0.22"/><rect x="-32" y="-64" width="10" height="192" fill="#30517f" fill-opacity="0.22"/><rect x="-16" y="-64" width="10" height="192" fill="#30517f" fill-opacity="0.22"/><rect x="0" y="-64" width="10" height="192" fill="#30517f" fill-opacity="0.22"/><rect x="16" y="-64" width="10" height="192" fill="#30517f" fill-opacity="0.22"/><rect x="32" y="-64" width="10" height="192" fill="#30517f" fill-opacity="0.22"/><rect x="48" y="-64" width="10" height="192" fill="#30517f" fill-opacity="0.22"/><rect x="64" y="-64" width="10" height="192" fill="#30517f" fill-opacity="0.22"/><rect x="80" y="-64" width="10" height="192" fill="#30517f" fill-opacity="0.22"/><rect x="96" y="-64" width="10" height="192" fill="#30517f" fill-opacity="0.22"/><rect x="112" y="-64" width="10" height="192" fill="#30517f" fill-opacity="0.22"/></g>
    <rect x="6" y="6" width="52" height="52" rx="14" fill="url(#grad-session_10min)" fill-opacity="0.35"/>
  </g>
  <rect x="6" y="6" width="52" height="52" rx="14" stroke="#e1edfc" stroke-width="1.25" fill="none"/>
    <circle cx="32" cy="30" r="12" fill="#f8fafc" stroke="#335788" stroke-width="2.2"/>
  <path d="M32 30l-1-6m1 6 5 3" stroke="#233b5e" stroke-width="2.2" stroke-linecap="round" stroke-linejoin="round"/>
  <circle cx="32" cy="30" r="2" fill="#d2e5fc"/>
</svg>
