<?xml version="1.0" encoding="UTF-8"?>
<svg xmlns="http://www.w3.org/2000/svg" viewBox="0 0 256 256">
  <defs>
    <linearGradient id="sky" x1="0" x2="0" y1="0" y2="1">
      <stop offset="0%" stop-color="#1e2c62"/>
      <stop offset="60%" stop-color="#0f142c"/>
      <stop offset="100%" stop-color="#090b18"/>
    </linearGradient>
    <linearGradient id="pad" x1="0" x2="0" y1="0" y2="1">
      <stop offset="0%" stop-color="#5b678a"/>
      <stop offset="100%" stop-color="#2d3348"/>
    </linearGradient>
    <linearGradient id="tower" x1="0" x2="0" y1="0" y2="1">
      <stop offset="0%" stop-color="#d8e3ff"/>
      <stop offset="100%" stop-color="#8192c6"/>
    </linearGradient>
    <linearGradient id="rocket" x1="0" x2="0" y1="0" y2="1">
      <stop offset="0%" stop-color="#f4f7ff"/>
      <stop offset="100%" stop-color="#aebbe0"/>
    </linearGradient>
    <radialGradient id="flame" cx="0.5" cy="0" r="1.2">
      <stop offset="0%" stop-color="#ffd75c"/>
      <stop offset="60%" stop-color="#ff8a3d"/>
      <stop offset="100%" stop-color="#ff543d" stop-opacity="0"/>
    </radialGradient>
  </defs>
  <rect width="256" height="256" rx="32" fill="url(#sky)"/>
  <g fill="#fff1a8" opacity="0.6">
    <circle cx="58" cy="44" r="3"/>
    <circle cx="92" cy="28" r="2"/>
    <circle cx="142" cy="46" r="2.6"/>
    <circle cx="190" cy="32" r="2.2"/>
    <circle cx="210" cy="68" r="2.4"/>
    <circle cx="168" cy="76" r="1.8"/>
  </g>
  <path d="M0 184c40 20 80 30 128 30s88-10 128-30v72H0z" fill="#131a2f" opacity="0.9"/>
  <g transform="translate(36 84)">
    <rect x="-12" y="96" width="208" height="40" rx="16" fill="url(#pad)"/>
    <rect x="150" y="6" width="24" height="120" rx="8" fill="url(#tower)" stroke="#41507d" stroke-width="6"/>
    <path d="M162 6h12l18 40v64h-30z" fill="#9aa9d4" opacity="0.6"/>
    <g transform="translate(84)">
      <path d="M20 0c14 16 24 40 24 72v60H-4V72C-4 40 6 16 20 0z" fill="url(#rocket)" stroke="#6d7fb4" stroke-width="6"/>
      <path d="M20 24c8 12 12 26 12 40v68H8V64c0-14 4-28 12-40z" fill="#fdfdff" opacity="0.45"/>
      <path d="M-4 132h48l-12 36H8z" fill="#ff7345"/>
      <ellipse cx="20" cy="132" rx="32" ry="20" fill="url(#flame)" opacity="0.85"/>
      <rect x="2" y="52" width="36" height="32" rx="12" fill="#1f2d53" stroke="#0d1328" stroke-width="6"/>
      <circle cx="20" cy="32" r="10" fill="#1f2d53" stroke="#0d1328" stroke-width="6"/>
      <path d="M20-8l22 24H-2z" fill="#d8e3ff" stroke="#6d7fb4" stroke-width="6"/>
    </g>
    <rect x="12" y="84" width="48" height="52" rx="10" fill="#2c3554" stroke="#53628d" stroke-width="6"/>
    <rect x="18" y="90" width="36" height="40" rx="8" fill="#4f5c84"/>
    <rect x="72" y="96" width="44" height="40" rx="10" fill="#313b5d" stroke="#53628d" stroke-width="6"/>
    <rect x="78" y="102" width="32" height="28" rx="8" fill="#4f5c84"/>
  </g>
  <rect width="256" height="256" rx="32" fill="none" stroke="rgba(255,255,255,0.16)" stroke-width="4"/>
</svg>
