<?xml version="1.0" encoding="UTF-8"?>
<svg xmlns="http://www.w3.org/2000/svg" viewBox="0 0 256 256">
  <defs>
    <linearGradient id="bg" x1="0" x2="0" y1="0" y2="1">
      <stop offset="0%" stop-color="#102341"/>
      <stop offset="100%" stop-color="#050912"/>
    </linearGradient>
    <linearGradient id="glass" x1="0" x2="0" y1="0" y2="1">
      <stop offset="0%" stop-color="#8fe3ff"/>
      <stop offset="100%" stop-color="#2d7db4"/>
    </linearGradient>
    <linearGradient id="concrete" x1="0" x2="0" y1="0" y2="1">
      <stop offset="0%" stop-color="#d5d9e6"/>
      <stop offset="100%" stop-color="#8a92ac"/>
    </linearGradient>
    <linearGradient id="screen" x1="0" x2="1" y1="0" y2="1">
      <stop offset="0%" stop-color="#1a2a4c"/>
      <stop offset="100%" stop-color="#263a69"/>
    </linearGradient>
  </defs>
  <rect width="256" height="256" rx="32" fill="url(#bg)"/>
  <g fill="#fff1a8" opacity="0.55">
    <circle cx="212" cy="48" r="3"/>
    <circle cx="176" cy="32" r="2.2"/>
    <circle cx="128" cy="44" r="2.8"/>
    <circle cx="84" cy="30" r="2.2"/>
    <circle cx="48" cy="54" r="2.6"/>
  </g>
  <path d="M0 200c38 22 76 32 128 32s90-10 128-32v56H0z" fill="#0b1428" opacity="0.9"/>
  <g transform="translate(30 70)">
    <rect x="10" y="116" width="176" height="36" rx="12" fill="url(#concrete)" stroke="#5c637c" stroke-width="6"/>
    <rect x="24" y="60" width="148" height="64" rx="14" fill="url(#screen)" stroke="#131f38" stroke-width="6"/>
    <rect x="34" y="70" width="60" height="44" rx="10" fill="#1ee3b2" opacity="0.85"/>
    <rect x="108" y="70" width="52" height="44" rx="10" fill="#15c3ff" opacity="0.7"/>
    <path d="M56 20h104l22 40H34z" fill="url(#glass)" stroke="#1f3c66" stroke-width="6"/>
    <rect x="76" y="-12" width="64" height="56" rx="20" fill="#e6ecff" stroke="#5c6b8f" stroke-width="6"/>
    <circle cx="108" cy="16" r="12" fill="#1f2a4c" stroke="#0b1325" stroke-width="6"/>
    <path d="M108-22l12 16h-24z" fill="#cdd8f7" stroke="#5c6b8f" stroke-width="6"/>
    <path d="M0 128h208v20H0z" fill="#2a324a" opacity="0.35"/>
    <g fill="#8fe3ff" opacity="0.4">
      <circle cx="48" cy="92" r="6"/>
      <circle cx="82" cy="92" r="6"/>
      <circle cx="132" cy="92" r="6"/>
      <circle cx="160" cy="92" r="6"/>
    </g>
  </g>
  <rect width="256" height="256" rx="32" fill="none" stroke="rgba(255,255,255,0.16)" stroke-width="4"/>
</svg>
