<?xml version="1.0" encoding="UTF-8"?>
<svg xmlns="http://www.w3.org/2000/svg" viewBox="0 0 256 256">
  <defs>
    <linearGradient id="bg" x1="0" x2="0" y1="0" y2="1">
      <stop offset="0%" stop-color="#0c1a36"/>
      <stop offset="100%" stop-color="#02040a"/>
    </linearGradient>
    <linearGradient id="walls" x1="0" x2="0" y1="0" y2="1">
      <stop offset="0%" stop-color="#f1f6ff"/>
      <stop offset="100%" stop-color="#8da0d8"/>
    </linearGradient>
    <linearGradient id="accent" x1="0" x2="1" y1="0" y2="1">
      <stop offset="0%" stop-color="#3b6fe3"/>
      <stop offset="100%" stop-color="#78b8ff"/>
    </linearGradient>
    <linearGradient id="dome" x1="0" x2="0" y1="0" y2="1">
      <stop offset="0%" stop-color="#9ac5ff"/>
      <stop offset="100%" stop-color="#4f7fd6"/>
    </linearGradient>
  </defs>
  <rect width="256" height="256" rx="32" fill="url(#bg)"/>
  <g fill="#fff1a8" opacity="0.6">
    <circle cx="52" cy="40" r="3"/>
    <circle cx="92" cy="26" r="2.4"/>
    <circle cx="136" cy="46" r="2.6"/>
    <circle cx="184" cy="30" r="2.2"/>
    <circle cx="214" cy="58" r="2.8"/>
    <circle cx="174" cy="80" r="2.2"/>
  </g>
  <path d="M0 204c40 24 80 36 128 36s88-12 128-36v52H0z" fill="#060a15" opacity="0.92"/>
  <g transform="translate(32 72)">
    <rect x="8" y="110" width="176" height="42" rx="14" fill="#1e2d4f" opacity="0.8"/>
    <rect x="22" y="38" width="148" height="92" rx="18" fill="url(#walls)" stroke="#5a6b9b" stroke-width="6"/>
    <rect x="38" y="56" width="116" height="56" rx="16" fill="#18274a" opacity="0.6"/>
    <rect x="46" y="64" width="48" height="40" rx="12" fill="#35d3ff" opacity="0.65"/>
    <rect x="102" y="64" width="44" height="40" rx="12" fill="#7df59f" opacity="0.55"/>
    <path d="M48 96h108" stroke="#79b7ff" stroke-width="6" stroke-linecap="round" opacity="0.55"/>
    <path d="M72 82l12 14 14-22 12 16" fill="none" stroke="#9dfba8" stroke-width="6" stroke-linecap="round" stroke-linejoin="round" opacity="0.75"/>
    <path d="M18 120h176v22H18z" fill="#283759" opacity="0.4"/>
    <circle cx="96" cy="10" r="34" fill="url(#dome)" stroke="#4c65a0" stroke-width="6"/>
    <path d="M80 6c8-10 26-10 34 0 6 8 6 18 0 26-8 10-26 10-34 0-6-8-6-18 0-26z" fill="#11213f" opacity="0.45"/>
    <path d="M96-32l30 36H66z" fill="url(#accent)" stroke="#1e3d6f" stroke-width="6"/>
    <circle cx="96" cy="10" r="10" fill="#101c36" stroke="#071024" stroke-width="6"/>
    <path d="M142 12l22 16-22 16" fill="none" stroke="#79b7ff" stroke-width="6" stroke-linecap="round" stroke-linejoin="round"/>
  </g>
  <rect width="256" height="256" rx="32" fill="none" stroke="rgba(255,255,255,0.16)" stroke-width="4"/>
</svg>
