<?xml version="1.0" encoding="UTF-8"?>
<svg xmlns="http://www.w3.org/2000/svg" viewBox="0 0 256 256">
  <defs>
    <linearGradient id="bg" x1="0" x2="0" y1="0" y2="1">
      <stop offset="0%" stop-color="#ffb960"/>
      <stop offset="55%" stop-color="#ff7f6e"/>
      <stop offset="100%" stop-color="#2643a5"/>
    </linearGradient>
    <radialGradient id="sun" cx="0.72" cy="0.3" r="0.32">
      <stop offset="0%" stop-color="#ffe9a6"/>
      <stop offset="100%" stop-color="#ff9e4d"/>
    </radialGradient>
    <linearGradient id="sand" x1="0" x2="0" y1="0" y2="1">
      <stop offset="0%" stop-color="#f2d48f"/>
      <stop offset="100%" stop-color="#d9a856"/>
    </linearGradient>
    <linearGradient id="drink" x1="0" x2="0" y1="0" y2="1">
      <stop offset="0%" stop-color="#f9f5ff"/>
      <stop offset="50%" stop-color="#ff5c97"/>
      <stop offset="100%" stop-color="#ffb347"/>
    </linearGradient>
    <linearGradient id="palm" x1="0" x2="1" y1="0" y2="1">
      <stop offset="0%" stop-color="#1e6136"/>
      <stop offset="100%" stop-color="#3cb970"/>
    </linearGradient>
  </defs>
  <rect width="256" height="256" rx="32" fill="url(#bg)"/>
  <circle cx="192" cy="72" r="42" fill="url(#sun)" opacity="0.9"/>
  <path d="M0 176c32 12 64 18 96 18s64-6 96-18 64-18 64-18v80H0z" fill="url(#sand)" opacity="0.92"/>
  <g transform="translate(74 58)">
    <path d="M28 8c5-14 19-26 36-30 18-4 34 1 45 16-14-6-26-5-37 1 8 2 17 7 23 14-13-6-24-6-35-2 11 3 21 10 27 19-15-8-28-9-42-4 9 5 15 13 19 22-18-12-35-16-52-14 9 4 16 11 20 19-17-12-32-15-48-11 11-12 23-18 44-18-7-5-14-8-22-10z"
          fill="url(#palm)" stroke="#0d3823" stroke-width="3" stroke-linejoin="round"/>
    <path d="M40 72c-2-16 0-36 7-55" stroke="#0d3823" stroke-width="7" stroke-linecap="round" fill="none"/>
  </g>
  <g transform="translate(130 110)">
    <path d="M32 0H0l18 56-18 38h32l-16-38z" fill="#d9ddea" stroke="#3b3e59" stroke-width="4" stroke-linejoin="round"/>
    <path d="M4 8h24l-9 28h-6z" fill="url(#drink)"/>
    <path d="M12 78h8" stroke="#3b3e59" stroke-width="4" stroke-linecap="round"/>
    <path d="M16-14l30-12" stroke="#ffe9a6" stroke-width="6" stroke-linecap="round"/>
    <path d="M30-28l14 20" stroke="#f94892" stroke-width="6" stroke-linecap="round"/>
    <circle cx="46" cy="-14" r="10" fill="#ff6f9f" stroke="#bf2563" stroke-width="3"/>
  </g>
  <rect x="0" y="0" width="256" height="256" rx="32" fill="none" stroke="rgba(255,255,255,0.18)" stroke-width="4"/>
</svg>
