<?xml version="1.0" encoding="UTF-8"?>
<svg xmlns="http://www.w3.org/2000/svg" viewBox="0 0 256 256">
  <defs>
    <linearGradient id="bg" x1="0" x2="0" y1="0" y2="1">
      <stop offset="0%" stop-color="#ffef8a"/>
      <stop offset="45%" stop-color="#ffb44d"/>
      <stop offset="100%" stop-color="#ff6e5d"/>
    </linearGradient>
    <linearGradient id="frame" x1="0" x2="1" y1="0" y2="1">
      <stop offset="0%" stop-color="#2f1f5b"/>
      <stop offset="100%" stop-color="#563b9c"/>
    </linearGradient>
    <linearGradient id="glassL" x1="0" x2="1" y1="0" y2="1">
      <stop offset="0%" stop-color="#362563"/>
      <stop offset="100%" stop-color="#15122e"/>
    </linearGradient>
    <linearGradient id="glassR" x1="0" x2="1" y1="0" y2="1">
      <stop offset="0%" stop-color="#2c2454"/>
      <stop offset="100%" stop-color="#0c1027"/>
    </linearGradient>
    <linearGradient id="shine" x1="0" x2="0" y1="0" y2="1">
      <stop offset="0%" stop-color="#fff2c6" stop-opacity="0.6"/>
      <stop offset="100%" stop-color="#ffffff" stop-opacity="0"/>
    </linearGradient>
  </defs>
  <rect width="256" height="256" rx="32" fill="url(#bg)"/>
  <g opacity="0.18">
    <circle cx="64" cy="56" r="22" fill="#fff"/>
    <circle cx="188" cy="54" r="18" fill="#fff"/>
    <path d="M36 192c28 10 52 14 76 14s48-4 76-14c24-8 44-18 68-34-22 36-48 60-80 72-28 10-56 8-88-4-34-12-64-38-88-78 20 18 40 32 64 40z" fill="#fff"/>
  </g>
  <g transform="translate(28 86)">
    <path d="M8 34c16-20 42-34 72-34s56 14 72 34" fill="none" stroke="url(#frame)" stroke-width="16" stroke-linecap="round"/>
    <path d="M8 34h56c14 0 22 12 24 24l6 32c4 18-8 32-26 32H40c-18 0-32-14-30-32l4-36c1-8 6-18 14-20z" fill="url(#glassL)" stroke="#0f0c2a" stroke-width="6" stroke-linejoin="round"/>
    <path d="M216 34h-56c-14 0-22 12-24 24l-6 32c-4 18 8 32 26 32h28c18 0 32-14 30-32l-4-36c-1-8-6-18-14-20z" fill="url(#glassR)" stroke="#0f0c2a" stroke-width="6" stroke-linejoin="round"/>
    <rect x="110" y="40" width="36" height="24" rx="12" fill="url(#frame)" stroke="#0f0c2a" stroke-width="6"/>
    <path d="M52 34c10-14 30-24 50-24s40 10 50 24" fill="none" stroke="#8b6ae3" stroke-width="6" stroke-linecap="round" opacity="0.4"/>
    <path d="M30 66l12 36" stroke="#8b6ae3" stroke-width="6" stroke-linecap="round" opacity="0.4"/>
    <path d="M194 66l-12 36" stroke="#8b6ae3" stroke-width="6" stroke-linecap="round" opacity="0.4"/>
    <ellipse cx="48" cy="66" rx="34" ry="24" fill="url(#shine)" opacity="0.6"/>
    <ellipse cx="184" cy="66" rx="34" ry="24" fill="url(#shine)" opacity="0.6"/>
  </g>
  <rect width="256" height="256" rx="32" fill="none" stroke="rgba(255,255,255,0.18)" stroke-width="4"/>
</svg>
