<?xml version="1.0" encoding="UTF-8"?>
<svg xmlns="http://www.w3.org/2000/svg" viewBox="0 0 256 256">
  <defs>
    <linearGradient id="bg" x1="0" x2="0" y1="0" y2="1">
      <stop offset="0%" stop-color="#211f4f"/>
      <stop offset="100%" stop-color="#07071a"/>
    </linearGradient>
    <linearGradient id="fabric" x1="0" x2="1" y1="0" y2="1">
      <stop offset="0%" stop-color="#7a6bff"/>
      <stop offset="100%" stop-color="#c86bff"/>
    </linearGradient>
    <linearGradient id="edge" x1="0" x2="1" y1="0" y2="1">
      <stop offset="0%" stop-color="#ffd26f"/>
      <stop offset="100%" stop-color="#ff7f6f"/>
    </linearGradient>
  </defs>
  <rect width="256" height="256" rx="32" fill="url(#bg)"/>
  <g fill="#fff1a8" opacity="0.5">
    <circle cx="54" cy="44" r="3"/>
    <circle cx="98" cy="30" r="2.6"/>
    <circle cx="152" cy="40" r="2.4"/>
    <circle cx="208" cy="58" r="2.8"/>
    <circle cx="176" cy="84" r="2.2"/>
  </g>
  <g transform="translate(56 44)">
    <path d="M20 12l96-12c14-2 26 8 28 22l16 110c2 12-6 24-18 28l-106 32c-16 4-32-6-34-22L0 42c-2-14 8-28 20-30z" fill="url(#fabric)" stroke="#3d2c88" stroke-width="8" stroke-linejoin="round"/>
    <path d="M30 30l88-12c10-2 20 6 22 18l14 94c2 12-4 22-16 26l-94 28c-12 4-24-4-26-16L14 52c-2-12 6-20 16-22z" fill="#2f1f64" opacity="0.45"/>
    <path d="M18 32l100-14c6-2 12 2 12 8l2 18c-44 18-78 36-104 62l-10-58c-2-8 0-14 8-16z" fill="url(#edge)" opacity="0.85"/>
    <path d="M34 128c28-34 68-60 118-76" fill="none" stroke="#fff7c6" stroke-width="8" stroke-linecap="round" stroke-linejoin="round" opacity="0.4"/>
    <g fill="#fff1a8" opacity="0.5">
      <circle cx="52" cy="70" r="4"/>
      <circle cx="104" cy="58" r="4"/>
      <circle cx="84" cy="94" r="3"/>
    </g>
  </g>
  <rect width="256" height="256" rx="32" fill="none" stroke="rgba(255,255,255,0.16)" stroke-width="4"/>
</svg>
