<?xml version="1.0" encoding="UTF-8"?>
<svg xmlns="http://www.w3.org/2000/svg" viewBox="0 0 256 256">
  <defs>
    <linearGradient id="bg" x1="0" x2="0" y1="0" y2="1">
      <stop offset="0%" stop-color="#1a2f52"/>
      <stop offset="100%" stop-color="#060b15"/>
    </linearGradient>
    <linearGradient id="glove" x1="0" x2="0" y1="0" y2="1">
      <stop offset="0%" stop-color="#ff9a73"/>
      <stop offset="100%" stop-color="#e35160"/>
    </linearGradient>
    <linearGradient id="magnet" x1="0" x2="1" y1="0" y2="1">
      <stop offset="0%" stop-color="#5ad9ff"/>
      <stop offset="100%" stop-color="#2a74ff"/>
    </linearGradient>
  </defs>
  <rect width="256" height="256" rx="32" fill="url(#bg)"/>
  <g fill="#fff1a8" opacity="0.5">
    <circle cx="44" cy="44" r="3"/>
    <circle cx="98" cy="28" r="2.6"/>
    <circle cx="162" cy="40" r="2.4"/>
    <circle cx="208" cy="64" r="2.8"/>
  </g>
  <g transform="translate(44 42)">
    <path d="M54 18c16-8 32-4 40 12l24 46c6 12 4 24-6 32l-34 28c-8 6-18 8-28 6-10-2-18-8-24-16l-36-50c-10-14-6-34 10-42l18-10c10-6 22-4 30 4l4 4 6-2z" fill="url(#glove)" stroke="#b23b4f" stroke-width="8" stroke-linejoin="round"/>
    <path d="M36 64l38 54c6 8 16 10 24 4l30-24c6-4 8-12 4-20l-22-42c-4-8-14-12-22-8l-24 12c-8 4-18 2-24-4l-4-4c-4-4-10-6-16-2l-18 10c-10 6-12 18-6 26l18 24c8 10 22 10 32 4l8-6z" fill="none" stroke="#ffd7c7" stroke-width="8" opacity="0.35" stroke-linecap="round" stroke-linejoin="round"/>
    <g transform="translate(122 44) rotate(-14)">
      <path d="M0 0h48c18 0 30 12 30 30v12c0 18-12 30-30 30H0z" fill="url(#magnet)" stroke="#143b72" stroke-width="8" stroke-linejoin="round"/>
      <path d="M0 14h18c8 0 14 6 14 14v12c0 8-6 14-14 14H0z" fill="#0d1e39" opacity="0.45"/>
      <path d="M48 14h18c8 0 14 6 14 14v12c0 8-6 14-14 14H48z" fill="#0d1e39" opacity="0.35"/>
    </g>
  </g>
  <rect width="256" height="256" rx="32" fill="none" stroke="rgba(255,255,255,0.16)" stroke-width="4"/>
</svg>
