<?xml version="1.0" encoding="UTF-8"?>
<svg xmlns="http://www.w3.org/2000/svg" viewBox="0 0 256 256">
  <defs>
    <linearGradient id="bg" x1="0" x2="0" y1="0" y2="1">
      <stop offset="0%" stop-color="#1b285b"/>
      <stop offset="100%" stop-color="#050812"/>
    </linearGradient>
    <linearGradient id="sock" x1="0" x2="0" y1="0" y2="1">
      <stop offset="0%" stop-color="#7bd7ff"/>
      <stop offset="100%" stop-color="#2a5fb3"/>
    </linearGradient>
    <linearGradient id="sole" x1="0" x2="1" y1="0" y2="1">
      <stop offset="0%" stop-color="#1c2b56"/>
      <stop offset="100%" stop-color="#0c1329"/>
    </linearGradient>
  </defs>
  <rect width="256" height="256" rx="32" fill="url(#bg)"/>
  <g fill="#fff1a8" opacity="0.55">
    <circle cx="56" cy="40" r="3"/>
    <circle cx="118" cy="28" r="2.4"/>
    <circle cx="178" cy="44" r="2.6"/>
    <circle cx="212" cy="66" r="2.2"/>
  </g>
  <g transform="translate(56 42)">
    <path d="M40 20c0 40 6 70 24 96 12 18 26 28 42 32l-18 30c-32-4-58-30-70-58-14-32-10-70 22-100z" fill="url(#sock)" stroke="#1f3a6c" stroke-width="8" stroke-linejoin="round"/>
    <path d="M68 140c16 16 36 24 60 26l-8 14c-26-2-48-16-64-36z" fill="url(#sole)" opacity="0.8"/>
    <path d="M28 46c-22 26-30 60-16 94 18 46 62 74 102 72 8 0 14-4 18-10l14-24c6-10 0-22-12-24-26-4-40-24-50-44-10-22-14-44-10-72" fill="none" stroke="#7bd7ff" stroke-width="8" stroke-linecap="round" opacity="0.5"/>
    <path d="M76 10c4 0 8 2 10 6 6 10 8 28 4 48" fill="none" stroke="#b6ecff" stroke-width="8" stroke-linecap="round" opacity="0.6"/>
  </g>
  <rect width="256" height="256" rx="32" fill="none" stroke="rgba(255,255,255,0.16)" stroke-width="4"/>
</svg>
